<?xml version="1.0" standalone="no"?>
<!DOCTYPE svg PUBLIC "-//W3C//DTD SVG 20010904//EN"
 "http://www.w3.org/TR/2001/REC-SVG-20010904/DTD/svg10.dtd">
<svg version="1.0" xmlns="http://www.w3.org/2000/svg"
 width="700.000000pt" height="700.000000pt" viewBox="0 0 700.000000 700.000000"
 preserveAspectRatio="xMidYMid meet">
<metadata>
Created by potrace 1.14, written by Peter Selinger 2001-2017
</metadata>
<g transform="translate(0.000000,700.000000) scale(0.100000,-0.100000)"
fill="#000000" stroke="none">
<path d="M4 6963 c18 -137 171 -541 335 -885 52 -109 60 -133 55 -165 -7 -44
-12 -330 -6 -354 3 -13 22 -16 117 -17 62 0 122 -5 134 -11 29 -16 126 -154
105 -150 -5 1 -87 1 -182 0 l-173 -1 1 -190 c2 -213 -5 -199 85 -198 215 0
541 -5 552 -9 12 -5 153 -183 153 -194 0 -2 -176 -4 -391 -4 -215 0 -394 -2
-397 -5 -4 -3 -8 -109 -9 -237 l-3 -231 328 -1 c180 0 332 0 337 0 8 -1 13
-1986 5 -2466 -3 -198 4 -184 -183 -364 -339 -327 -705 -699 -755 -766 -81
-110 -105 -166 -108 -259 -5 -172 88 -304 274 -387 179 -81 406 -89 542 -19
94 48 134 105 203 290 91 243 133 314 203 340 31 12 118 20 247 22 59 0 100 5
105 12 7 12 10 57 11 219 l1 108 119 122 c225 232 264 272 358 382 53 61 149
179 216 262 66 84 123 151 127 148 8 -5 9 -45 9 -732 l1 -523 265 0 c146 0
265 3 266 8 0 4 2 393 3 864 1 611 5 861 13 869 8 8 27 6 69 -6 56 -16 119
-55 279 -172 80 -59 113 -69 154 -45 27 15 31 15 68 -2 36 -16 43 -16 74 -3
19 8 54 32 79 54 56 49 169 133 180 133 8 0 11 -336 12 -1227 0 -423 1 -461
16 -465 9 -2 130 -4 267 -3 l250 0 2 195 c0 107 2 440 4 739 l3 545 38 -45
c66 -75 186 -243 193 -270 3 -14 8 -34 10 -45 2 -10 4 -268 4 -571 l1 -553
268 0 268 0 1 198 c2 299 2 322 11 322 8 0 37 -26 216 -194 66 -61 151 -140
190 -176 200 -186 240 -239 315 -420 28 -69 65 -154 82 -190 87 -183 180 -240
385 -235 127 3 170 10 272 42 203 63 313 193 313 368 0 152 -91 318 -271 494
-54 52 -75 89 -84 145 -4 21 -7 244 -7 495 l0 456 -46 90 c-48 94 -104 199
-133 250 -10 17 -38 68 -63 115 -24 47 -83 155 -129 240 -47 85 -106 196 -133
245 -26 50 -56 104 -65 120 -10 17 -41 75 -70 130 -29 55 -56 105 -60 110 -4
6 -38 68 -75 139 -59 112 -67 133 -58 155 5 14 79 125 163 246 84 121 178 256
208 300 31 44 99 143 153 220 235 338 279 410 262 416 -9 3 -147 5 -306 5
l-289 -1 -27 -31 c-70 -78 -739 -1178 -742 -1219 0 -5 -3 -2 -7 7 -4 10 -7
127 -6 262 1 219 3 248 20 279 15 29 94 120 249 291 18 20 199 239 265 321 36
44 69 85 75 91 5 7 39 50 75 98 36 47 73 88 83 91 25 9 132 13 390 16 l227 2
1 26 c0 14 1 100 2 191 l2 165 -167 3 c-93 1 -168 7 -168 12 0 20 77 130 98
140 13 5 70 10 127 10 58 0 106 3 106 8 1 4 2 95 3 202 l2 195 67 139 c90 184
177 388 242 566 59 161 103 325 92 336 -4 4 -27 -2 -52 -14 -88 -43 -417 -255
-650 -420 -176 -125 -246 -178 -375 -284 -52 -43 -98 -78 -102 -78 -4 0 -8 25
-8 55 l0 55 -40 0 c-28 0 -40 -4 -41 -15 -1 -8 -3 -19 -4 -25 -1 -5 -3 -14 -4
-18 0 -5 -16 -8 -33 -7 -29 1 -33 5 -36 33 -3 30 -6 32 -43 32 -34 0 -39 -3
-40 -22 0 -13 -2 -60 -3 -105 l-3 -83 42 0 c40 0 42 2 43 30 1 40 9 50 36 50
35 0 50 -23 35 -52 -14 -27 -21 -34 -117 -115 -44 -36 -85 -63 -104 -65 -16
-3 -926 -6 -2020 -7 l-1990 -1 -47 37 c-25 20 -48 40 -51 43 -3 3 -29 25 -58
49 -62 51 -58 74 7 41 46 -25 71 -21 71 10 0 29 -66 170 -87 186 -41 31 -80 7
-126 -76 l-17 -32 -43 33 c-23 19 -44 36 -47 40 -20 24 -359 276 -540 401
-169 116 -525 338 -544 338 -3 0 -4 -17 -2 -37z m243 -215 c203 -136 599 -412
605 -422 13 -19 9 -22 -29 -22 l-38 1 -2 -107 -2 -108 40 0 c38 0 39 1 39 33
0 47 10 52 39 19 37 -40 72 -62 98 -62 29 0 30 22 2 67 -32 51 -12 65 38 27
54 -40 285 -234 281 -235 -2 -1 -177 -3 -390 -5 l-387 -3 -25 32 c-46 61 -205
385 -272 553 -58 147 -104 276 -104 291 0 10 31 -7 107 -59z m6497 -256 c-65
-158 -124 -296 -131 -307 -15 -22 -12 -29 -19 60 -1 22 -3 44 -3 48 -1 5 -18
7 -38 5 -39 -3 -39 -4 -42 -60 -1 -27 -1 -26 -43 18 -33 35 -51 46 -80 48
l-38 4 0 -103 c0 -110 2 -114 50 -107 23 3 26 8 24 38 -4 48 10 50 47 5 17
-22 45 -45 61 -50 l30 -11 -21 -29 c-12 -16 -21 -32 -21 -35 0 -4 -11 -24 -25
-46 l-25 -40 -385 1 c-212 1 -388 5 -390 9 -3 5 7 18 22 30 16 12 44 36 63 54
49 44 176 146 183 146 3 0 7 -17 9 -37 l3 -38 105 0 c101 0 105 1 108 23 2 12
0 22 -5 23 -4 1 -28 3 -52 5 -49 4 -81 23 -43 25 12 1 31 3 42 4 11 1 27 3 36
4 24 2 14 46 -11 47 -11 1 -35 2 -53 3 -19 0 -31 5 -27 11 3 6 26 9 49 8 50
-1 66 6 66 33 0 17 -16 24 -42 20 -28 -4 7 29 110 104 64 47 125 92 135 100 9
8 19 15 22 15 2 0 42 26 87 58 46 32 144 98 218 145 103 67 136 84 138 71 2
-8 -49 -145 -114 -302z m-5843 -242 c15 0 10 -17 -6 -24 -9 -3 -19 3 -26 16
-10 18 -9 20 6 15 9 -4 21 -7 26 -7z m392 -72 c-2 -5 -8 -8 -14 -8 -11 0 -12
33 -2 44 8 8 23 -25 16 -36z m264 -638 c191 -2 193 -2 231 -28 54 -37 131
-104 137 -120 6 -17 -1028 -15 -1049 2 -8 6 -35 40 -61 76 l-47 65 123 5 c68
3 203 4 299 3 96 -1 261 -3 367 -3z m4591 1 c39 -1 72 -5 72 -10 0 -8 -71
-122 -87 -141 -6 -6 -1021 -8 -1046 -2 -14 4 -6 15 39 56 97 87 107 95 129 98
16 2 568 2 893 -1z m-1078 -12 c0 -13 -110 -110 -136 -119 -58 -22 -215 -25
-1474 -25 -1078 0 -1314 2 -1359 14 -44 11 -65 25 -112 73 -33 33 -59 60 -59
61 0 1 706 2 1570 2 863 0 1570 -3 1570 -6z m-2760 -547 c61 -4 70 -10 188
-124 37 -37 58 -64 52 -68 -6 -4 -30 -6 -53 -5 -77 4 -74 15 -74 -252 -2 -677
-5 -973 -12 -973 -4 0 -31 26 -61 58 -117 125 -169 181 -260 281 -52 58 -106
117 -120 131 -14 15 -72 78 -130 141 -58 63 -108 116 -112 117 -5 2 -8 7 -8
10 0 6 87 9 420 11 l115 1 -1 233 c-1 127 -2 234 -3 237 -1 5 -110 6 -708 10
l-233 1 -67 87 c-37 48 -71 93 -77 100 -8 12 81 13 540 11 302 -2 574 -5 604
-7z m2170 -1 c0 -13 -158 -159 -190 -176 -22 -12 -74 -16 -207 -19 -98 -2
-183 -5 -189 -5 -8 -1 -12 -48 -13 -158 0 -87 -5 -173 -10 -192 -14 -44 -50
-91 -141 -181 -186 -182 -209 -201 -234 -198 -17 2 -111 87 -283 255 l-259
251 -2 108 c-1 59 -5 110 -8 113 -3 3 -51 6 -107 7 -56 1 -106 3 -112 3 -5 1
-57 46 -115 101 l-105 99 988 0 c543 0 987 -3 987 -8z m1360 2 c0 -10 -238
-306 -305 -379 -5 -6 -80 -95 -165 -198 l-155 -187 -5 58 c-3 32 -5 158 -5
281 l1 222 -268 0 -268 0 -1 -512 c0 -282 -2 -533 -5 -558 -7 -71 -21 -101
-72 -155 -26 -28 -73 -79 -105 -114 -32 -35 -62 -59 -68 -55 -8 5 -9 178 -5
618 4 336 8 638 10 671 2 33 4 72 5 86 1 25 35 63 174 193 l39 37 599 -1 c329
-1 599 -4 599 -7z m-2573 -868 l162 -158 -87 -84 c-215 -209 -209 -204 -297
-207 -36 -1 -70 1 -74 4 -9 5 -12 680 -3 713 5 20 -15 38 299 -268z m-1536 30
c31 -33 81 -86 110 -119 30 -32 65 -71 79 -86 14 -15 63 -69 110 -120 47 -51
90 -98 95 -104 6 -6 62 -67 125 -136 63 -69 122 -134 132 -145 29 -31 33 -59
32 -245 0 -260 0 -258 -63 -296 -68 -41 -88 -59 -361 -324 -300 -292 -394
-380 -398 -376 -3 3 -3 237 -2 1608 l0 498 43 -48 c23 -26 67 -74 98 -107z
m2145 -187 l-1 -283 -292 -2 c-161 -1 -293 1 -293 5 0 11 569 562 581 562 3 0
5 -127 5 -282z m794 -751 c0 -151 -2 -281 -5 -289 -5 -13 -13 -14 -41 -6 -29
8 -43 5 -87 -16 -29 -13 -67 -34 -84 -46 -18 -12 -33 -18 -33 -13 0 20 59 64
120 89 36 14 66 27 68 29 1 1 -41 44 -93 96 -53 51 -98 103 -101 115 -8 32 11
61 106 165 47 50 96 105 109 120 13 16 27 29 32 29 4 0 8 -123 9 -273z m795
-119 c32 -62 79 -153 105 -203 26 -49 138 -268 248 -486 l201 -396 2 -196 c1
-109 0 -200 -3 -202 -5 -6 -42 29 -412 389 -405 395 -384 372 -392 425 -4 25
-8 148 -7 273 0 220 0 228 24 273 26 49 160 234 170 235 3 0 32 -51 64 -112z
m-1600 83 c12 -1 12 -6 15 -201 2 -141 -3 -164 -42 -216 -40 -54 -408 -444
-418 -444 -3 0 -32 25 -65 55 -69 64 -208 136 -306 160 -36 9 -71 20 -77 24
-9 6 -13 87 -16 314 -1 169 -2 308 0 310 3 3 889 1 909 -2z m-1452 -371 c3
-11 6 -160 6 -331 l2 -310 -73 -102 c-40 -56 -77 -107 -83 -113 -5 -6 -21 -26
-35 -44 -88 -116 -184 -231 -313 -374 -85 -94 -91 -101 -224 -237 l-102 -105
-3 60 c-2 34 -2 91 0 128 4 65 4 67 35 78 64 21 121 90 138 168 24 101 -14
166 -114 198 l-57 18 0 83 c0 50 6 97 14 118 16 37 84 107 458 468 260 251
330 316 339 317 4 0 9 -9 12 -20z m2224 -12 l33 -32 0 -168 c0 -161 -1 -171
-25 -216 -32 -59 -31 -94 1 -197 45 -145 33 -142 -101 20 -66 80 -123 154
-126 163 -3 9 -5 80 -5 157 2 156 10 182 68 230 18 14 41 33 51 41 16 13 53
31 67 33 2 1 19 -13 37 -31z m-759 -223 c-1 -54 -2 -56 -34 -70 -41 -17 -145
-87 -193 -130 -20 -18 -47 -38 -61 -45 l-25 -13 25 29 c14 16 32 36 40 45 8 9
64 68 124 132 59 64 112 115 116 112 5 -3 8 -30 8 -60z m1648 -631 c153 -149
322 -314 375 -365 53 -52 102 -104 109 -117 11 -23 18 -127 9 -136 -3 -3 -29
-8 -59 -11 -61 -7 -95 -23 -126 -57 -92 -101 -66 -264 49 -307 16 -6 53 -11
83 -11 l54 0 1 -42 c1 -49 6 -170 8 -179 1 -3 135 -6 299 -7 l297 -3 0 67 c0
36 3 71 7 77 7 11 87 -65 149 -143 72 -89 118 -210 112 -294 -13 -188 -193
-303 -478 -304 -214 -1 -257 37 -375 332 -28 71 -60 147 -72 170 -45 88 -127
180 -324 365 -311 291 -424 407 -430 439 -7 37 -12 821 -5 828 2 2 12 -4 21
-13 9 -10 142 -140 296 -289z m-3882 -226 c36 -33 41 -77 13 -119 -12 -19 -33
-35 -45 -37 -21 -3 -22 0 -22 81 0 106 7 116 54 75z m-599 -281 c1 -39 -1 -80
-5 -90 -3 -10 -32 -29 -64 -42 -85 -34 -116 -82 -124 -188 -4 -61 -2 -70 19
-93 30 -33 98 -72 144 -85 l35 -10 1 -67 c0 -37 2 -92 5 -122 5 -51 -1 -70
-75 -253 -91 -227 -116 -273 -166 -311 -154 -118 -472 -76 -632 84 -90 90
-111 197 -60 302 15 31 61 95 102 144 79 94 806 816 814 808 2 -2 5 -37 6 -77z
m4945 -217 c32 -17 47 -163 19 -181 -69 -44 -160 60 -122 139 21 44 66 62 103
42z m-4944 -35 c6 -22 7 -62 5 -123 -1 -29 -4 -32 -25 -28 -42 8 -64 25 -75
58 -18 54 0 101 44 118 27 10 44 2 51 -25z"/>
<path d="M393 6284 c-7 -20 5 -32 39 -36 39 -5 42 -11 41 -83 0 -36 2 -66 6
-66 3 -1 22 -2 42 -3 l36 -2 1 66 c0 36 0 71 1 78 1 7 15 12 36 12 31 0 35 3
35 25 l0 25 -115 0 c-96 0 -117 -3 -122 -16z"/>
<path d="M2135 2457 c-61 -20 -118 -94 -128 -168 -13 -102 87 -209 195 -209
88 1 178 102 178 200 0 116 -135 214 -245 177z m119 -113 c14 -15 26 -29 27
-33 0 -3 2 -14 4 -24 6 -32 -16 -77 -46 -92 -72 -38 -139 4 -135 84 5 83 93
121 150 65z"/>
<path d="M5340 1807 c-24 -12 -57 -40 -74 -61 -27 -33 -31 -45 -31 -99 1 -98
52 -172 136 -194 112 -31 225 52 234 170 11 151 -135 253 -265 184z m131 -87
c23 -13 46 -58 43 -87 0 -12 -9 -34 -18 -48 -52 -80 -172 -36 -169 62 2 66 81
106 144 73z"/>
<path d="M6439 623 c-128 -53 -169 -182 -94 -294 66 -100 215 -108 305 -16 49
51 62 121 35 198 -38 107 -144 155 -246 112z m135 -113 c57 -56 31 -147 -48
-169 -78 -21 -146 70 -110 145 32 65 105 76 158 24z"/>
<path d="M410 618 c-64 -33 -105 -102 -104 -177 0 -116 79 -195 194 -195 67
-1 114 25 156 86 25 36 29 50 29 114 0 65 -3 76 -31 110 -62 77 -164 103 -244
62z m137 -89 c65 -35 63 -142 -4 -177 -94 -50 -188 68 -122 152 35 44 75 52
126 25z"/>
<path d="M1573 6297 c-3 -5 -7 -54 -8 -109 l-1 -99 40 3 c38 3 41 5 46 38 4
31 8 35 39 38 53 4 86 24 89 54 5 40 -14 66 -51 73 -63 11 -147 12 -154 2z
m107 -56 c0 -12 -20 -25 -27 -18 -7 7 6 27 18 27 5 0 9 -4 9 -9z"/>
<path d="M2418 6302 c-27 -3 -77 -45 -79 -66 0 -6 -2 -21 -3 -33 -1 -12 3 -35
10 -52 34 -82 168 -90 235 -14 81 92 -9 184 -163 165z m88 -77 c18 -28 11 -60
-17 -75 -24 -13 -55 2 -64 30 -9 27 19 70 45 70 11 0 27 -11 36 -25z"/>
<path d="M3222 6298 c-72 -20 -61 -96 18 -119 46 -14 74 -39 43 -39 -10 0 -29
7 -41 16 -12 8 -35 14 -50 12 -39 -4 -35 -37 7 -65 64 -43 182 -11 189 51 4
36 -11 53 -62 68 -50 15 -97 38 -76 38 17 0 73 -13 108 -24 21 -7 23 -5 20 15
-5 40 -91 66 -156 47z"/>
<path d="M4335 6303 c-11 -3 -39 -18 -62 -34 l-43 -28 0 29 c0 27 -3 30 -34
30 -42 0 -52 -14 -50 -65 1 -22 2 -64 3 -92 1 -52 2 -53 31 -53 23 0 36 9 59
40 l29 40 18 -28 c9 -15 25 -32 33 -39 20 -16 91 -17 91 -2 0 7 -16 34 -35 60
-19 27 -35 52 -35 56 0 4 14 22 32 40 17 18 30 34 27 37 -9 8 -45 13 -64 9z"/>
<path d="M5243 6299 c-89 -25 -110 -138 -36 -193 34 -25 121 -25 164 1 34 19
57 48 47 58 -11 12 -68 8 -94 -6 -35 -18 -59 -2 -59 42 l0 34 60 0 c100 1 108
9 51 45 -40 24 -88 31 -133 19z"/>
<path d="M1940 6192 l0 -109 38 6 c34 6 37 9 40 44 3 35 5 37 37 37 35 0 45
-13 45 -56 0 -21 4 -24 40 -24 25 0 40 5 41 13 1 12 1 146 0 180 -1 13 -10 17
-35 17 -28 0 -38 -5 -48 -27 -18 -37 -42 -50 -62 -34 -9 8 -16 21 -16 31 0 20
-19 30 -56 30 -24 0 -24 0 -24 -108z"/>
<path d="M2756 6225 c5 -115 25 -137 123 -138 98 -1 127 33 130 151 l2 62 -44
0 -44 0 0 -56 c0 -70 -18 -107 -47 -98 -29 9 -28 6 -30 71 -1 33 -6 64 -10 71
-4 7 -24 12 -45 12 l-38 0 3 -75z"/>
<path d="M3545 6288 c-3 -11 0 -164 4 -190 0 -5 48 -8 106 -8 l105 0 0 25 c0
21 -5 25 -30 26 -16 1 -34 3 -40 4 -5 1 -19 3 -31 4 -29 2 -13 21 19 21 15 1
40 6 56 13 26 11 27 14 12 26 -9 7 -36 16 -61 19 -25 2 -42 9 -39 14 4 5 24 8
46 5 40 -5 73 14 65 37 -6 17 -206 21 -212 4z"/>
<path d="M4566 6203 c2 -126 0 -120 27 -117 12 1 27 3 34 3 9 1 12 30 12 106
l0 105 -37 0 -37 0 1 -97z"/>
<path d="M4797 6293 c-10 -22 1 -38 28 -41 40 -5 45 -15 45 -93 0 -63 1 -66
23 -64 12 1 33 3 47 4 25 1 25 3 24 71 -2 68 -2 70 24 76 47 10 51 13 49 33
-1 20 -7 21 -119 21 -64 0 -119 -3 -121 -7z"/>
</g>
</svg>
