<svg width="18" height="18" viewBox="0 0 18 18" fill="none" xmlns="http://www.w3.org/2000/svg">
<g opacity="0.5">
<path d="M17.9613 0.679366C17.9395 0.660151 17.9262 0.63304 17.9238 0.603823C17.8864 0.528279 17.8864 0.490638 17.8488 0.452998V0.377455L17.5488 0.075544H17.4737L17.3238 0L9.86209 0.000263216C9.46035 0.000263216 9.08894 0.215836 8.88806 0.566176C8.68693 0.916515 8.68693 1.34796 8.88806 1.69828C9.08894 2.04862 9.46034 2.26419 9.86209 2.26419H14.1743L9.1873 7.16977C8.97177 7.37639 8.84989 7.66277 8.84989 7.96233C8.84989 8.2616 8.97177 8.54825 9.1873 8.75462C9.39497 8.96809 9.67797 9.08996 9.97458 9.09417C10.2741 9.10391 10.5626 8.97967 10.7621 8.75462L15.7491 3.73591V8.07553C15.7491 8.47983 15.9636 8.85361 16.3115 9.05576C16.6596 9.25817 17.0883 9.25817 17.4364 9.05576C17.7846 8.85361 17.9988 8.47984 17.9988 8.07553V1.01915C18.0043 0.94177 17.9914 0.864381 17.9614 0.792786L17.9613 0.679366Z" fill="white"/>
<path d="M13.7992 15.7355H2.25033V4.15095H6.03759V1.88674L1.12538 1.887C0.824072 1.87621 0.531655 1.99203 0.318476 2.20681C0.105048 2.42133 -0.0100322 2.71561 0.000687722 3.01885V16.8675C-0.0100362 17.1707 0.105048 17.465 0.318476 17.6795C0.531642 17.8943 0.824058 18.0101 1.12538 17.9993H14.924C15.2224 17.9993 15.5083 17.8801 15.7194 17.6679C15.9304 17.4555 16.0489 17.1675 16.0489 16.8675V11.924H13.799L13.7992 15.7355Z" fill="white"/>
</g>
</svg>
