<svg width="26" height="23" viewBox="0 0 26 23" fill="none" xmlns="http://www.w3.org/2000/svg">
<path d="M13.3832 2.77737C13.2461 2.91416 13.122 3.05056 13.0043 3.18478C12.8865 3.05055 12.7624 2.91415 12.6253 2.77737C12.2047 2.35779 11.7495 1.99297 11.2586 1.71713C10.196 1.08167 8.95387 0.75 7.71273 0.75C5.86373 0.75 4.10473 1.47595 2.80074 2.77657C0.526424 5.01582 0.10073 8.46789 1.73978 11.1631L1.73976 11.1631L1.74154 11.166C2.03941 11.6413 2.37359 12.0979 2.80378 12.4972L12.4185 22.0018C12.4186 22.002 12.4187 22.0021 12.4189 22.0022C12.4922 22.0753 12.5752 22.1329 12.6638 22.1741L12.633 22.25H13.0042C13.2184 22.25 13.4273 22.1641 13.5896 22.0023C13.5898 22.0021 13.59 22.0019 13.5902 22.0017L23.2047 12.4972C23.6349 12.0979 23.9691 11.6413 24.267 11.166L24.2687 11.1631C25.9089 8.46607 25.4513 5.01479 23.2084 2.77717C21.9043 1.47612 20.1451 0.75 18.2958 0.75C17.0535 0.75 15.8104 1.0823 14.7469 1.71893L14.7469 1.71889L14.743 1.7213C14.2588 2.02327 13.8079 2.38363 13.3899 2.77097L13.3897 2.77085L13.3832 2.77737ZM22.8463 10.2928L22.8463 10.2928L22.8441 10.2966C22.6247 10.68 22.348 11.0124 22.0372 11.3226C22.037 11.3227 22.0369 11.3228 22.0368 11.3229L13.0044 20.2483L3.97191 11.3229C3.97176 11.3228 3.97162 11.3226 3.97148 11.3225C3.66556 11.0172 3.38557 10.6545 3.16101 10.2905C1.93632 8.26256 2.26855 5.64833 3.97066 3.9491C4.97811 2.97244 6.28988 2.41668 7.71277 2.41668H7.71293C8.66376 2.41668 9.61153 2.66788 10.4171 3.16658L10.4237 3.17062L10.4304 3.17426C10.786 3.36523 11.1469 3.64147 11.4538 3.94765L11.4536 3.94782L11.4617 3.95519C11.7899 4.25517 12.0654 4.61144 12.2875 4.99797C12.4237 5.26254 12.718 5.42079 13.0044 5.42079C13.3122 5.42079 13.5582 5.24418 13.7093 5.01789L13.7094 5.01798L13.7142 5.0103C13.9385 4.6467 14.2189 4.28301 14.5551 3.94765L14.5552 3.94782L14.5626 3.93984C14.8601 3.61615 15.2158 3.36841 15.5887 3.13941C16.3966 2.66755 17.3458 2.41668 18.2959 2.41668C19.6909 2.41668 21.0322 2.97339 22.0393 3.95032L22.0397 3.95072C23.766 5.61758 24.0752 8.23091 22.8463 10.2928Z" fill="white" stroke="white" stroke-width="0.5"/>
</svg>
