<svg width="30" height="30" viewBox="0 0 30 30" fill="none" xmlns="http://www.w3.org/2000/svg">
<path fill-rule="evenodd" clip-rule="evenodd" d="M0.899673 0.501761C2.28805 1.35937 3.77153 2.41475 4.78348 3.26478C5.08803 3.52058 5.05096 3.51978 5.16815 3.27309C5.38001 2.82709 5.65574 2.83526 5.85115 3.29331C5.90594 3.42176 5.98675 3.60192 6.03075 3.69367C6.14025 3.92198 5.90316 4.02997 5.70635 3.8414C5.65698 3.79413 5.60104 3.77568 5.52913 3.78302C5.42719 3.79343 5.43792 3.80547 5.88815 4.18578L6.35221 4.5778L14.9782 4.57767C23.5918 4.57757 23.6043 4.57747 23.7132 4.50974C23.8186 4.44425 24.212 4.11281 24.4302 3.90569C24.5869 3.75696 24.5831 3.58884 24.4223 3.55805C24.2492 3.52495 24.2144 3.55288 24.2031 3.73361L24.193 3.89385L24.0213 3.90393L23.8495 3.91404V3.46186C23.8495 3.18438 23.8621 3.00872 23.8822 3.00715C23.9002 3.00575 23.9775 3.00335 24.054 3.00185L24.193 2.99911L24.2031 3.13787L24.2131 3.27663H24.3748H24.5365V3.14514C24.5365 2.98803 24.5427 2.98366 24.7397 3.00195L24.8938 3.01623L24.9033 3.26458L24.9128 3.51297L25.2236 3.25995C25.3945 3.12075 25.5594 2.98577 25.5901 2.95991C26.6622 2.05619 30 -0.158735 30 0.0335386C30 0.545166 29.3082 2.42062 28.5709 3.9081L28.2661 4.52292V5.38443V6.24597L28.0943 6.25244C27.9998 6.25601 27.7901 6.25518 27.6281 6.25058C27.2938 6.24113 27.1629 6.29518 27.0619 6.48449C27.0314 6.5415 26.9587 6.66091 26.9002 6.74989C26.8417 6.83884 26.7939 6.91951 26.7939 6.92912C26.7939 6.93873 27.1254 6.9466 27.5305 6.9466H28.2672L28.2585 7.77235L28.2497 8.59809L26.9379 8.61477C25.54 8.63256 25.5758 8.62812 25.4538 8.79827C25.2114 9.13644 23.7769 10.9074 23.5061 11.2028C23.488 11.2225 23.3776 11.3491 23.2606 11.4842C23.1437 11.6192 22.9576 11.8284 22.847 11.9489C22.2513 12.5984 22.3116 12.3933 22.3133 13.7632L22.3148 14.9038L22.3808 14.787C22.4172 14.7228 22.5468 14.4888 22.6689 14.2672C22.8966 13.8537 23.3179 13.1321 23.5048 12.8352C23.9538 12.1222 24.8819 10.6383 25.2646 10.0212C25.4489 9.72417 25.5812 9.54548 25.6357 9.52019C25.7358 9.47365 28.2532 9.46727 28.2812 9.51348C28.2906 9.5291 27.9205 10.0877 27.4587 10.7548C26.9969 11.422 26.4272 12.2455 26.1928 12.585C25.9585 12.9245 25.7034 13.2923 25.626 13.4024C25.5486 13.5125 25.4093 13.7152 25.3165 13.8528C25.2238 13.9905 25.0876 14.1856 25.0139 14.2866C24.9403 14.3875 24.8582 14.5132 24.8315 14.5659C24.7742 14.6788 24.6696 14.4646 25.7868 16.5219C26.2103 17.3018 26.6007 18.0224 26.6544 18.1233C26.708 18.2243 26.8257 18.442 26.9159 18.6071C27.1516 19.0388 27.2102 19.1469 27.531 19.7415C27.6894 20.0351 27.8973 20.4179 27.9931 20.5922C28.0889 20.7666 28.2203 21.017 28.2852 21.1488L28.4031 21.3885L28.4038 23.4843C28.4045 25.9575 28.3364 25.6323 28.9933 26.3C30.7261 28.0609 30.088 29.8276 27.6642 29.9801C26.5182 30.0522 26.0987 29.7715 25.6499 28.6328C25.1169 27.2802 25.1312 27.2997 23.7502 26.0305C23.5805 25.8745 23.3453 25.6568 23.2276 25.5467C23.1098 25.4366 22.869 25.2114 22.6924 25.0462C22.5159 24.8811 22.358 24.741 22.3416 24.7349C22.3242 24.7283 22.3119 25.1925 22.3119 25.8609V26.998H21.1668H20.0218L20.0204 24.5708C20.0188 21.9817 20.0222 22.0383 19.8558 21.7931C19.7522 21.6403 19.3944 21.1531 19.3517 21.1064C19.3334 21.0865 19.2375 20.9707 19.1385 20.8492L18.9586 20.6283L18.9422 23.8048L18.9258 26.9813H17.7808H16.6358V23.3364C16.6358 21.3316 16.6244 19.6914 16.6105 19.6914C16.5596 19.6914 16.1025 20.0316 15.8038 20.2917C15.4566 20.5941 15.3437 20.6263 15.1213 20.4861L15.0059 20.4134L14.882 20.4861C14.6566 20.6184 14.5824 20.5945 14.1134 20.2382C13.6792 19.9082 13.4368 19.7407 13.2451 19.638C13.1282 19.5754 12.7288 19.4857 12.6862 19.5126C12.6723 19.5213 12.6609 21.2092 12.6609 23.2633V26.998H11.5158H10.3708L10.3697 24.2539C10.3686 21.6555 10.3656 21.5135 10.3124 21.58C10.2816 21.6186 10.0953 21.8588 9.89859 22.1138C9.61518 22.4811 9.05516 23.1688 8.96408 23.2613C8.95505 23.2705 8.81624 23.4281 8.65561 23.6116C8.30457 24.0126 8.35911 23.9549 7.50818 24.8268L6.82116 25.5307L6.8048 26.256L6.78844 26.9813L6.01963 26.998C4.98474 27.0205 4.92906 27.0749 4.35209 28.6302C4.26131 28.875 4.14932 29.1458 4.10326 29.2322C3.36245 30.6202 0.286685 29.9952 0.0290513 28.4043C-0.113195 27.5259 0.212225 27.0448 2.32279 25.0134C2.52972 24.8143 2.7441 24.6051 2.79923 24.5485C2.95747 24.3861 4.0552 23.3203 4.24155 23.1481C4.54279 22.8698 4.51472 23.487 4.51472 17.1424V11.5174H3.07475H1.63482L1.64346 10.5081L1.65213 9.4989H3.3615C4.30168 9.4989 5.07088 9.49333 5.07088 9.48656C5.07088 9.47101 4.64817 8.90487 4.51963 8.74823L4.42381 8.63145L3.05431 8.61477L1.68484 8.59809L1.67611 7.77235L1.66734 6.9466H2.43674C2.85988 6.9466 3.20611 6.93616 3.20611 6.92338C3.20611 6.91064 3.12144 6.76838 3.01799 6.6073C2.78699 6.24757 2.78313 6.24597 2.14616 6.24594L1.65213 6.2459L1.65569 5.43821C1.6587 4.75042 1.66668 4.62574 1.70954 4.59819C1.7522 4.57076 1.70915 4.4638 1.42708 3.89619C0.737339 2.50834 0 0.500259 0 0.00975062C0 -0.0380925 0.224264 0.0845514 0.899673 0.501761ZM0.608833 0.866122C0.662486 1.0981 0.963304 1.90993 1.16552 2.36838C1.20824 2.46523 1.24318 2.55154 1.24318 2.56022C1.24318 2.65877 2.11194 4.3522 2.23812 4.49963L2.30643 4.57944L3.99851 4.57026L5.69058 4.56112L5.50341 4.40678C5.40049 4.3219 5.19268 4.14925 5.04167 4.0231C4.3273 3.4264 4.30881 3.41298 4.24678 3.44685C4.16558 3.49115 4.17029 3.50997 4.3074 3.68943C4.54613 4.00195 4.18456 4.04332 3.90975 3.73494C3.70191 3.5017 3.70263 3.50176 3.69036 3.71869L3.68048 3.89385H3.5169H3.35333L3.34423 3.4351L3.33514 2.97636H3.53234C3.80071 2.97636 3.78831 2.95591 3.32879 2.63959C3.10835 2.48788 2.72928 2.22641 2.48637 2.05856C0.424613 0.633913 0.577623 0.731101 0.608833 0.866122ZM28.9 1.11795C28.0439 1.66144 26.7272 2.5831 26.3603 2.89555L26.2702 2.97232L26.393 2.98266C26.504 2.99204 26.5168 3.00305 26.5258 3.09723C26.5368 3.2129 26.4442 3.25621 26.2635 3.21988C26.2147 3.21007 26.1374 3.2116 26.0917 3.22328C25.936 3.26315 26.0083 3.30706 26.2459 3.31686L26.4831 3.32667V3.42676V3.52685L26.2459 3.53666C25.9037 3.55081 25.9191 3.62704 26.2704 3.65831L26.5322 3.68156V3.77938V3.87717H26.0574H25.5826L25.591 3.71079C25.5956 3.61924 25.59 3.54043 25.5785 3.53563C25.5615 3.52849 25.0455 3.93692 24.9152 4.06067C24.8958 4.07902 24.7746 4.18098 24.6457 4.28724C24.5169 4.39353 24.3936 4.50237 24.3718 4.52912C24.3372 4.57166 24.5466 4.5778 26.0351 4.5778H27.738L27.9202 4.26629C28.1339 3.90119 28.1286 3.92418 28.0054 3.89906C27.906 3.87877 27.8648 3.84454 27.6936 3.63979C27.5436 3.46049 27.53 3.46313 27.53 3.67175V3.86049L27.3746 3.87066L27.2192 3.88084V3.42436V2.96788L27.3899 2.9846C27.5493 3.00021 27.572 3.01432 27.7315 3.19736L27.9022 3.3934L27.9124 3.19666L27.9226 2.99991L28.0862 2.99998L28.2497 3.00005L28.2592 3.28847C28.2726 3.69751 28.3171 3.64436 28.6213 2.85542C28.6575 2.76136 28.7169 2.61874 28.7531 2.53846C28.7894 2.45819 28.863 2.2799 28.9168 2.14227C28.9706 2.00465 29.1112 1.65967 29.2292 1.37565C29.5179 0.680989 29.5494 0.705644 28.9 1.11795ZM2.70926 3.10778C2.7195 3.20963 2.71907 3.2099 2.55386 3.2099H2.38822V3.54354V3.87717H2.20829H2.02835V3.56405V3.25094L1.84842 3.22802C1.67918 3.20646 1.66848 3.19963 1.66848 3.11298C1.66848 2.98617 1.63983 2.99234 2.19736 2.99934L2.69902 3.00565L2.70926 3.10778ZM7.51812 3.05383C7.77762 3.29334 7.61431 3.56682 7.20736 3.57436L7.07012 3.5769L7.06014 3.73537L7.05016 3.89385L6.87841 3.90393L6.70665 3.91404V3.46743C6.70665 3.22181 6.71545 3.01189 6.72618 3.00091C6.77781 2.9483 7.4526 2.99337 7.51812 3.05383ZM8.64455 3.05526C8.65776 3.07608 8.66879 3.13523 8.66908 3.18671C8.67 3.3571 8.97651 3.30762 8.99051 3.13483C9.00036 3.01366 9.00465 3.00972 9.1269 3.00972C9.19629 3.00972 9.27638 3.00061 9.30484 2.98947C9.35055 2.97159 9.3566 3.02457 9.3566 3.44161V3.91404L9.18484 3.90393L9.01309 3.89385L9.00265 3.74425C8.99064 3.57226 8.96176 3.54474 8.79226 3.54404C8.68757 3.5436 8.66915 3.55455 8.66656 3.6186C8.65469 3.91547 8.66931 3.89292 8.48146 3.90393L8.30971 3.91404V3.45329V2.99257L8.4651 3.00498C8.55059 3.01182 8.63133 3.03444 8.64455 3.05526ZM10.9246 3.03481C11.5661 3.36838 10.9371 4.16309 10.2652 3.86803C9.91312 3.71342 9.92843 3.11832 10.2872 3.01199C10.4649 2.95931 10.8027 2.97139 10.9246 3.03481ZM12.1957 3.33722C12.1878 3.54781 12.1954 3.58894 12.25 3.62965C12.4259 3.7608 12.53 3.62641 12.53 3.26829V2.99304H12.7099H12.8899V3.30332C12.8899 3.79666 12.7795 3.92338 12.3501 3.92338C11.9233 3.92338 11.8103 3.79563 11.8103 3.31346V3.01339L11.9656 3.00321C12.1781 2.9893 12.2073 3.03154 12.1957 3.33722ZM14.4375 3.11201C14.5654 3.25578 14.5141 3.32644 14.3299 3.26015C14.2606 3.23522 14.1364 3.2045 14.054 3.19189C13.8171 3.15565 13.874 3.22855 14.1331 3.29334C14.4903 3.38259 14.6092 3.51331 14.5104 3.70812C14.3764 3.97242 13.81 4.01676 13.6019 3.77921C13.4251 3.57743 13.662 3.45586 13.9017 3.62531C14.0248 3.71225 14.133 3.72186 14.133 3.64586C14.133 3.60142 14.044 3.55698 13.903 3.53109C13.6447 3.48368 13.4996 3.22752 13.6505 3.08559C13.8139 2.93192 14.2915 2.94793 14.4375 3.11201ZM16.096 3.10818C16.096 3.21671 16.0061 3.25664 15.8386 3.22248C15.7836 3.21124 15.7012 3.2116 15.6555 3.22328C15.5034 3.26222 15.57 3.30999 15.777 3.31049C16.15 3.31143 16.2091 3.51344 15.8451 3.54354C15.4913 3.57279 15.5176 3.6528 15.8873 3.67185L16.1323 3.68446L16.1223 3.78916L16.1123 3.89385H15.6543H15.1963L15.1872 3.45275L15.178 3.01166L15.6125 3.00235C16.1184 2.9915 16.096 2.9866 16.096 3.10818ZM18.1389 3.13727L18.1371 3.27206L18.251 3.17007C18.3969 3.03948 18.5465 2.97636 18.7102 2.97636C18.9052 2.97636 18.9098 3.03541 18.7273 3.19686L18.5668 3.33888L18.6345 3.43287C18.9866 3.92114 18.9844 3.91053 18.7303 3.91053C18.5438 3.91053 18.4789 3.86756 18.3538 3.66107L18.2799 3.53923L18.1756 3.71656C18.0746 3.88808 18.0664 3.89385 17.926 3.89385H17.7808L17.7716 3.47864C17.7602 2.96928 17.7511 2.99204 17.9647 2.99774L18.1407 3.00245L18.1389 3.13727ZM19.8837 3.45669L19.8928 3.91053H19.7283H19.5638V3.45045V2.99037L19.7192 2.99661L19.8746 3.00288L19.8837 3.45669ZM21.586 3.10778C21.5953 3.19989 21.5873 3.20993 21.5042 3.21037C21.2671 3.21154 21.2606 3.22108 21.2679 3.55628L21.2746 3.86049L21.0735 3.87043L20.8724 3.88034V3.56569C20.8724 3.22021 20.8666 3.21154 20.6352 3.21037C20.5583 3.20997 20.5453 3.19616 20.5453 3.11538C20.5453 2.9858 20.5156 2.99234 21.0741 2.99934L21.5758 3.00565L21.586 3.10778ZM22.981 3.04585C23.3332 3.22525 23.1966 3.34639 22.7372 3.26218C22.576 3.23266 22.5257 3.278 22.5324 3.44692C22.54 3.64262 22.7018 3.71686 22.8408 3.58851C22.9221 3.51348 23.2279 3.52889 23.2279 3.60803C23.2279 3.87774 22.5304 4.03368 22.2882 3.81808C21.8092 3.3917 22.3897 2.74468 22.981 3.04585ZM3.69684 3.22251C3.69684 3.30822 3.78281 3.35233 3.86382 3.30812L3.93684 3.26829L3.85773 3.22358C3.75497 3.16553 3.69684 3.16513 3.69684 3.22251ZM7.07872 3.25891C7.06757 3.28861 7.06652 3.3211 7.07637 3.33114C7.10787 3.36327 7.23422 3.30589 7.221 3.26545C7.20095 3.20403 7.10113 3.19942 7.07872 3.25891ZM10.482 3.23542C10.4112 3.2836 10.3666 3.41472 10.3876 3.51241C10.4421 3.7655 10.7961 3.70575 10.7961 3.44345C10.7961 3.27513 10.6073 3.15011 10.482 3.23542ZM5.46707 3.38723C5.41642 3.51818 5.42113 3.54354 5.49618 3.54354C5.56574 3.54354 5.57781 3.47848 5.53021 3.36004C5.50528 3.29805 5.50083 3.29995 5.46707 3.38723ZM3.30425 6.26415C3.30425 6.30332 3.62872 6.76767 3.70943 6.84398L3.79495 6.92485L6.03595 6.94C7.57174 6.95041 8.27699 6.9443 8.27699 6.92058C8.27699 6.85389 7.64202 6.31206 7.52506 6.27893C7.40526 6.245 3.30425 6.23062 3.30425 6.26415ZM22.3171 6.35831C22.0559 6.58084 21.723 6.89002 21.723 6.91004C21.723 6.93229 25.0905 6.94217 25.8203 6.92205L26.2698 6.90964L26.4689 6.62381C26.5785 6.46664 26.6759 6.3173 26.6854 6.29198C26.7 6.25318 26.3703 6.24597 24.5759 6.24597H22.4489L22.3171 6.35831ZM8.43481 6.45683C9.00867 7.00532 8.11194 6.93846 14.9182 6.94023C21.8595 6.94203 20.9863 7.01216 21.6394 6.40028L21.7685 6.27933H15.0088H8.24912L8.43481 6.45683ZM4.97274 8.63182C4.97274 8.6439 5.51234 9.34873 5.60414 9.45656C5.60774 9.4608 6.52345 9.47205 7.63904 9.48159L9.66739 9.4989V10.5165V11.5341L8.50868 11.5428L7.34993 11.5516L7.62537 11.8431C7.83867 12.0689 8.42849 12.7079 8.7846 13.099C8.80289 13.1191 8.92701 13.2556 9.06039 13.4024C9.19381 13.5492 9.43646 13.8123 9.59967 13.987C9.76286 14.1617 9.99573 14.4132 10.1171 14.5459C10.2385 14.6785 10.3452 14.787 10.3541 14.787C10.3631 14.787 10.3741 13.5972 10.3788 12.143L10.3871 9.4989L10.6816 9.4933C10.8435 9.4902 10.9871 9.48646 11.0006 9.48496C11.0402 9.48059 10.3002 8.77809 10.1458 8.67339C10.0627 8.61704 4.97274 8.57617 4.97274 8.63182ZM11.0165 8.88372C11.1647 9.03085 11.369 9.22529 11.4704 9.31587L11.655 9.48052L12.1497 9.48973L12.6445 9.4989L12.6536 9.9792L12.6627 10.4595L12.9162 10.7132C13.0556 10.8527 13.419 11.2071 13.7237 11.5007C14.0285 11.7943 14.4301 12.1847 14.6162 12.3682C15.0317 12.7777 14.949 12.7885 15.5067 12.2514C16.7096 11.0928 16.6358 11.227 16.6358 10.1995V9.4989L17.4517 9.48913C18.3591 9.47828 18.363 9.47742 18.615 9.24381C18.8865 8.99215 19.2366 8.6468 19.2366 8.63072C19.2366 8.62195 17.3265 8.61511 14.9918 8.61551L10.747 8.61621L11.0165 8.88372ZM19.4749 9.00679C19.2432 9.22239 19.0248 9.43635 18.9897 9.48222C18.9255 9.5661 18.8668 15.2366 18.9275 15.4876L18.9477 15.571L19.0316 15.471C19.0778 15.4159 19.3011 15.171 19.5278 14.9269C20.0763 14.336 20.0186 14.6896 20.0203 11.9094L20.0218 9.51558H21.1668H22.3119V10.7167C22.3119 11.3773 22.3202 11.9177 22.3304 11.9177C22.3405 11.9177 22.3884 11.8694 22.4367 11.8103C22.531 11.6949 23.073 11.045 23.2406 10.8463C23.2966 10.7799 23.4013 10.6528 23.4733 10.5639C23.5453 10.4749 23.663 10.3333 23.735 10.249C23.807 10.1648 24.0131 9.91741 24.193 9.69932C24.373 9.48122 24.5423 9.279 24.5692 9.24991C24.6768 9.13401 25.06 8.65377 25.06 8.63489C25.06 8.62385 23.8982 8.61477 22.4781 8.61477H19.8963L19.4749 9.00679ZM12.6936 12.6999V14.2866H13.0359C13.4465 14.2866 13.3301 14.369 14.423 13.304L14.6952 13.0387L14.4383 12.7869C13.4312 11.7991 12.8061 11.1941 12.7542 11.1568C12.6954 11.1146 12.6936 11.1614 12.6936 12.6999ZM6.80552 16.099L6.8048 20.6304L6.89477 20.5584C6.94423 20.5188 7.14726 20.3263 7.34594 20.1306C7.54459 19.9349 7.94944 19.5422 8.24562 19.2579C8.54176 18.9735 8.90921 18.6196 9.06216 18.4714C9.2151 18.3231 9.45036 18.0952 9.58495 17.9648C9.73404 17.8203 9.93007 17.6731 10.0866 17.588C10.2583 17.4948 10.3327 17.4373 10.3108 17.415C10.289 17.3927 10.2933 17.3302 10.3241 17.227C10.358 17.1129 10.3698 16.8714 10.369 16.305C10.3679 15.4411 10.3703 15.4517 10.1099 15.165C9.78635 14.8088 9.00183 13.9528 8.75355 13.685C8.6084 13.5285 8.37923 13.28 8.24427 13.1328C7.69704 12.536 7.10673 11.8931 6.96092 11.7351L6.80621 11.5674L6.80552 16.099ZM16.4558 11.924C16.3749 11.9999 16.0289 12.3345 15.687 12.6676C14.8367 13.4959 14.3362 13.9809 14.1903 14.1183C14.1228 14.1818 14.0676 14.2419 14.0676 14.2518C14.0676 14.2617 14.6417 14.2658 15.3435 14.2608L16.6194 14.2517V13.018C16.6194 12.3395 16.6157 11.7847 16.6112 11.7851C16.6067 11.7856 16.5368 11.8481 16.4558 11.924ZM19.9509 15.0834C19.9449 15.0997 19.7266 15.3413 19.4656 15.6203C18.8722 16.2551 18.846 16.301 18.9555 16.5152C18.9947 16.5918 19.631 17.2257 19.7395 17.2962C19.7937 17.3314 19.7364 17.369 19.5311 17.433C19.2747 17.5129 19.0177 17.6731 18.9584 17.79C18.8932 17.9187 18.887 17.9206 19.2181 17.7087C19.541 17.5019 19.6398 17.4708 19.8152 17.5204C19.8838 17.5399 19.9584 17.5559 19.9809 17.556C20.0129 17.5561 20.0218 17.2838 20.0218 16.305C20.0218 15.2092 20.0059 14.9347 19.9509 15.0834ZM22.7948 16.7283C22.254 17.4794 22.3121 17.2579 22.312 18.5671C22.3119 19.8746 22.2851 19.7593 22.6769 20.1407C22.827 20.2869 23.1194 20.5721 23.3267 20.7746C23.534 20.977 23.9903 21.4204 24.3409 21.7599C24.9958 22.3941 25.6526 23.0316 25.6816 23.0611C25.8226 23.205 25.8181 23.2331 25.8067 22.2916L25.7961 21.4096L25.6464 21.1094C25.5087 20.8331 24.8956 19.6317 24.4632 18.7906C23.8218 17.5431 23.5404 16.9949 23.3757 16.672C23.2727 16.4702 23.1773 16.2928 23.1636 16.2779C23.1499 16.2629 22.9839 16.4656 22.7948 16.7283ZM12.668 17.7202C12.6731 18.4527 12.6861 19.0611 12.6969 19.0721C12.7077 19.0831 12.8991 19.1376 13.122 19.1931C13.679 19.3318 14.1606 19.611 14.5231 20.0055C14.6106 20.1006 14.7044 20.1173 14.7448 20.045C14.7592 20.0192 15.1611 19.5901 15.6379 19.0914C16.7337 17.9453 16.6577 18.0957 16.6301 17.1284L16.609 16.3884H14.6339H12.6587L12.668 17.7202ZM10.2074 17.973C10.1482 18.0176 10.0098 18.1413 9.8999 18.2478C9.79001 18.3544 9.56745 18.5689 9.40528 18.7245C9.24311 18.8802 8.81617 19.2927 8.45653 19.6414C8.09689 19.99 7.6782 20.3954 7.52611 20.5422C6.82322 21.2207 6.79744 21.2657 6.8117 21.792L6.82116 22.141L6.93566 22.1817C6.99864 22.2041 7.094 22.2321 7.14756 22.244C7.79506 22.3871 7.69881 23.4473 7.00927 23.7676L6.8048 23.8625L6.80503 24.4043L6.80529 24.9462L7.38671 24.3456C8.52635 23.1685 9.29424 22.2598 10.0886 21.1482L10.3708 20.7532V19.3402C10.3708 17.8365 10.3723 17.849 10.2074 17.973ZM19.4002 18.0847C18.9211 18.4465 18.8993 18.5025 18.9149 19.333L18.9258 19.9183L19.0397 20.0634C19.1514 20.2058 19.6448 20.7962 19.9 21.0927L20.0291 21.2428L20.0091 21.0535C19.9981 20.9494 19.9432 20.7472 19.8871 20.6043C19.7583 20.2764 19.7661 20.0345 19.9126 19.8143L20.0055 19.6747L20.0153 18.9356L20.0252 18.1965L19.8977 18.0599C19.7323 17.8825 19.6635 17.8859 19.4002 18.0847ZM16.2872 19.0158C15.602 19.737 15.3108 20.0526 15.3108 20.0739C15.3108 20.127 15.4523 20.043 15.5965 19.9042C15.8006 19.7079 16.276 19.3824 16.4678 19.3077L16.6194 19.2486V18.9696C16.6194 18.8161 16.6142 18.6905 16.6078 18.6905C16.6014 18.6905 16.4571 18.8369 16.2872 19.0158ZM9.70966 19.5074C10.2799 19.7781 10.3768 20.4299 9.91263 20.8727C9.60906 21.1623 9.26539 21.1692 8.90686 20.8928C8.16415 20.3203 8.86704 19.1073 9.70966 19.5074ZM9.22672 19.8675C9.03065 19.9687 8.94275 20.2555 9.0456 20.4584C9.19312 20.7493 9.61142 20.7294 9.76619 20.4241C9.93121 20.0987 9.54697 19.7023 9.22672 19.8675ZM22.3119 22.1734C22.3119 24.1432 22.3043 24.0657 22.5152 24.2461C22.5743 24.2967 22.8871 24.595 23.2103 24.909C23.9196 25.5982 23.9254 25.6038 24.3291 25.9804C25.3416 26.9246 25.5013 27.1403 25.8357 28.0156C26.3737 29.4235 26.5328 29.5711 27.5136 29.572C29.5425 29.574 30.2013 28.146 28.8269 26.7253C28.3681 26.2509 28.3969 26.255 28.3969 26.6648V26.9988L27.1129 26.9901L25.8288 26.9813L25.8124 26.4977L25.7961 26.0142L25.5507 26.0229C24.4897 26.0606 24.491 24.4651 25.552 24.4025L25.8124 24.3871V24.1228C25.8124 23.7843 25.7905 23.7448 25.3982 23.3744C25.2212 23.2073 24.9872 22.9821 24.8782 22.874C24.7693 22.7659 24.4012 22.4082 24.0603 22.0791C23.7195 21.7501 23.4026 21.4423 23.3562 21.3952C23.2661 21.3038 22.8949 20.9426 22.5327 20.594L22.3119 20.3815V22.1734ZM23.5809 22.224C24.0849 22.4884 24.1931 23.1975 23.7864 23.5721C23.2377 24.0777 22.4692 23.7361 22.419 22.9644C22.3831 22.413 23.0867 21.9647 23.5809 22.224ZM23.048 22.6052C22.6491 22.7895 22.8068 23.3948 23.2538 23.3948C23.6125 23.3948 23.7767 22.8724 23.4868 22.6532C23.3771 22.5701 23.1722 22.5477 23.048 22.6052ZM6.8048 22.9966C6.8048 23.399 6.80486 23.3992 6.87841 23.3755C7.22234 23.2646 7.30263 22.8031 7.00528 22.6463C6.81007 22.5434 6.8048 22.5526 6.8048 22.9966ZM4.34791 23.6166C4.28316 23.6873 3.95928 24.0075 3.62817 24.3282C0.87072 26.9992 0.483206 27.4398 0.410218 27.9875C0.218539 29.4253 3.14104 30.2353 3.80221 28.9277C3.8332 28.8664 3.98581 28.501 4.14144 28.1157C4.60214 26.9747 4.58251 27.0314 4.54296 26.9561C4.52352 26.919 4.50609 26.7049 4.50422 26.4801L4.50085 26.0716L4.31967 26.0145C4.07182 25.9364 3.89441 25.8267 3.74702 25.6603L3.62274 25.52L3.64047 25.2563C3.67341 24.766 3.86202 24.5214 4.29573 24.4067C4.50386 24.3516 4.48541 24.4025 4.47484 23.9131L4.46565 23.4882L4.34791 23.6166ZM25.3664 24.835C24.9671 25.0322 25.2825 25.7926 25.6913 25.6184L25.8124 25.5668V25.2333C25.8124 24.817 25.6666 24.6868 25.3664 24.835ZM4.253 24.8539C3.90438 24.9908 4.00138 25.5975 4.37375 25.6095L4.49836 25.6134L4.50923 25.4633C4.5461 24.9535 4.46859 24.7692 4.253 24.8539ZM2.47508 27.3457C3.00772 27.5985 3.13168 28.1982 2.74911 28.6711C2.1952 29.356 1.08236 28.7493 1.32811 27.8966C1.48577 27.3495 1.98164 27.1113 2.47508 27.3457ZM28.2099 27.3099C28.7418 27.5372 28.8894 28.3274 28.4701 28.7028C27.8761 29.2347 27.0196 28.8517 27.0236 28.056C27.0263 27.5333 27.7166 27.0991 28.2099 27.3099ZM1.8884 27.7365C1.48803 28.0411 1.79091 28.6897 2.25981 28.5319C2.41017 28.4813 2.50381 28.3776 2.54866 28.2119C2.65014 27.8371 2.19085 27.5065 1.8884 27.7365ZM27.6543 27.7307C27.3622 27.9123 27.3851 28.3645 27.694 28.514C27.8391 28.5842 27.9945 28.5682 28.1315 28.4687C28.5792 28.1436 28.1235 27.4389 27.6543 27.7307Z" fill="#E1FD68"/>
</svg>
